<?xml version="1.0" encoding="UTF-8" standalone="no"?>
<!DOCTYPE svg PUBLIC "-//W3C//DTD SVG 1.1//EN"
 "http://www.w3.org/Graphics/SVG/1.1/DTD/svg11.dtd">
<!-- Generated by graphviz version 2.38.0 (20140413.2041)
 -->
<!-- Title: G Pages: 1 -->
<svg width="1485pt" height="1448pt"
 viewBox="0.00 0.00 1484.70 1447.90" xmlns="http://www.w3.org/2000/svg" xmlns:xlink="http://www.w3.org/1999/xlink">
<g id="graph0" class="graph" transform="scale(1 1) rotate(0) translate(4 1443.9)">
<title>G</title>
<polygon fill="cornsilk" stroke="none" points="-4,4 -4,-1443.9 1480.7,-1443.9 1480.7,4 -4,4"/>
<!-- StructureGo -->
<g id="node1" class="node"><title>StructureGo</title>
<ellipse fill="none" stroke="black" cx="761.5" cy="-719.948" rx="55.7903" ry="18"/>
<text text-anchor="middle" x="761.5" y="-716.248" font-family="Times New Roman,serif" font-size="14.00">StructureGo</text>
</g>
<!-- AssemblyExtensions -->
<g id="node2" class="node"><title>AssemblyExtensions</title>
<text text-anchor="middle" x="1410.2" y="-1028.64" font-family="Times New Roman,serif" font-size="14.00">AssemblyExtensions</text>
</g>
<!-- AssemblyExtensions&#45;&gt;StructureGo -->
<g id="edge1" class="edge"><title>AssemblyExtensions&#45;&gt;StructureGo</title>
<path fill="none" stroke="black" d="M1372.52,-1014.2C1258.65,-959.363 918.774,-795.687 801.675,-739.295"/>
<polygon fill="black" stroke="black" points="803.189,-736.14 792.661,-734.954 800.152,-742.447 803.189,-736.14"/>
</g>
<!-- AssemblyResolver -->
<g id="node3" class="node"><title>AssemblyResolver</title>
<text text-anchor="middle" x="921.715" y="-1418.2" font-family="Times New Roman,serif" font-size="14.00">AssemblyResolver</text>
</g>
<!-- AssemblyResolver&#45;&gt;StructureGo -->
<g id="edge2" class="edge"><title>AssemblyResolver&#45;&gt;StructureGo</title>
<path fill="none" stroke="black" d="M917.594,-1403.84C895.864,-1308.64 794.592,-864.935 767.941,-748.167"/>
<polygon fill="black" stroke="black" points="771.305,-747.178 765.668,-738.208 764.481,-748.736 771.305,-747.178"/>
</g>
<!-- Graphviz -->
<g id="node4" class="node"><title>Graphviz</title>
<text text-anchor="middle" x="312.587" y="-1279.17" font-family="Times New Roman,serif" font-size="14.00">Graphviz</text>
</g>
<!-- Graphviz&#45;&gt;StructureGo -->
<g id="edge3" class="edge"><title>Graphviz&#45;&gt;StructureGo</title>
<path fill="none" stroke="black" d="M327.015,-1264.78C392.789,-1182.3 664.321,-841.807 741.158,-745.456"/>
<polygon fill="black" stroke="black" points="744.074,-747.414 747.572,-737.413 738.601,-743.049 744.074,-747.414"/>
</g>
<!-- NameSpace -->
<g id="node5" class="node"><title>NameSpace</title>
<text text-anchor="middle" x="41.5" y="-716.248" font-family="Times New Roman,serif" font-size="14.00">NameSpace</text>
</g>
<!-- NameSpace&#45;&gt;StructureGo -->
<g id="edge4" class="edge"><title>NameSpace&#45;&gt;StructureGo</title>
<path fill="none" stroke="black" d="M83.059,-719.948C202.818,-719.948 549.385,-719.948 695.399,-719.948"/>
<polygon fill="black" stroke="black" points="695.56,-723.448 705.56,-719.948 695.56,-716.448 695.56,-723.448"/>
</g>
<!-- Program -->
<g id="node6" class="node"><title>Program</title>
<text text-anchor="middle" x="312.587" y="-153.329" font-family="Times New Roman,serif" font-size="14.00">Program</text>
</g>
<!-- Program&#45;&gt;StructureGo -->
<g id="edge5" class="edge"><title>Program&#45;&gt;StructureGo</title>
<path fill="none" stroke="black" d="M327.015,-175.121C392.789,-257.599 664.321,-598.09 741.158,-694.44"/>
<polygon fill="black" stroke="black" points="738.601,-696.847 747.572,-702.483 744.074,-692.483 738.601,-696.847"/>
</g>
<!-- Structure -->
<g id="node7" class="node"><title>Structure</title>
<text text-anchor="middle" x="921.715" y="-14.3" font-family="Times New Roman,serif" font-size="14.00">Structure</text>
</g>
<!-- Structure&#45;&gt;StructureGo -->
<g id="edge6" class="edge"><title>Structure&#45;&gt;StructureGo</title>
<path fill="none" stroke="black" d="M917.594,-36.057C895.864,-131.261 794.592,-574.961 767.941,-691.729"/>
<polygon fill="black" stroke="black" points="764.481,-691.16 765.668,-701.688 771.305,-692.718 764.481,-691.16"/>
</g>
<!-- StructureMap -->
<g id="node8" class="node"><title>StructureMap</title>
<text text-anchor="middle" x="1410.2" y="-403.852" font-family="Times New Roman,serif" font-size="14.00">StructureMap</text>
</g>
<!-- StructureMap&#45;&gt;StructureGo -->
<g id="edge7" class="edge"><title>StructureMap&#45;&gt;StructureGo</title>
<path fill="none" stroke="black" d="M1372.52,-425.698C1258.65,-480.533 918.774,-644.209 801.675,-700.601"/>
<polygon fill="black" stroke="black" points="800.152,-697.45 792.661,-704.942 803.189,-703.756 800.152,-697.45"/>
</g>
</g>
</svg>
